name D:\school\WTK\thesis\model\3dpredictsim\Results\MidTarsalJoint\Fal_s1_bCst_PF_Natali2010_ls150_MT_nl_signed_lin_MTP_T5_ig24_300_10.mot
datacolumns 128
datarows 4
range 1.73786601 1.77262333
endheader
time	pelvis_tilt	pelvis_list	pelvis_rotation	pelvis_tx	pelvis_ty	pelvis_tz	hip_flexion_l	hip_adduction_l	hip_rotation_l	hip_flexion_r	hip_adduction_r	hip_rotation_r	knee_angle_l	knee_angle_r	ankle_angle_l	ankle_angle_r	subtalar_angle_l	subtalar_angle_r	tmt_angle_l	tmt_angle_r	mtp_angle_l	mtp_angle_r	lumbar_extension	lumbar_bending	lumbar_rotation	arm_flex_l	arm_add_l	arm_rot_l	arm_flex_r	arm_add_r	arm_rot_r	elbow_flex_l	elbow_flex_r	pro_sup_l	pro_sup_r	glut_med1_l/activation	glut_med2_l/activation	glut_med3_l/activation	glut_min1_l/activation	glut_min2_l/activation	glut_min3_l/activation	semimem_l/activation	semiten_l/activation	bifemlh_l/activation	bifemsh_l/activation	sar_l/activation	add_long_l/activation	add_brev_l/activation	add_mag1_l/activation	add_mag2_l/activation	add_mag3_l/activation	tfl_l/activation	pect_l/activation	grac_l/activation	glut_max1_l/activation	glut_max2_l/activation	glut_max3_l/activation	iliacus_l/activation	psoas_l/activation	quad_fem_l/activation	gem_l/activation	peri_l/activation	rect_fem_l/activation	vas_med_l/activation	vas_int_l/activation	vas_lat_l/activation	med_gas_l/activation	lat_gas_l/activation	soleus_l/activation	tib_post_l/activation	flex_dig_l/activation	flex_hal_l/activation	tib_ant_l/activation	per_brev_l/activation	per_long_l/activation	per_tert_l/activation	ext_dig_l/activation	ext_hal_l/activation	ercspn_l/activation	intobl_l/activation	extobl_l/activation	glut_med1_r/activation	glut_med2_r/activation	glut_med3_r/activation	glut_min1_r/activation	glut_min2_r/activation	glut_min3_r/activation	semimem_r/activation	semiten_r/activation	bifemlh_r/activation	bifemsh_r/activation	sar_r/activation	add_long_r/activation	add_brev_r/activation	add_mag1_r/activation	add_mag2_r/activation	add_mag3_r/activation	tfl_r/activation	pect_r/activation	grac_r/activation	glut_max1_r/activation	glut_max2_r/activation	glut_max3_r/activation	iliacus_r/activation	psoas_r/activation	quad_fem_r/activation	gem_r/activation	peri_r/activation	rect_fem_r/activation	vas_med_r/activation	vas_int_r/activation	vas_lat_r/activation	med_gas_r/activation	lat_gas_r/activation	soleus_r/activation	tib_post_r/activation	flex_dig_r/activation	flex_hal_r/activation	tib_ant_r/activation	per_brev_r/activation	per_long_r/activation	per_tert_r/activation	ext_dig_r/activation	ext_hal_r/activation	ercspn_r/activation	intobl_r/activation	extobl_r/activation	
          1.73786601	         -2.93017530	          2.14914918	         -5.82931391	          2.17233251	          0.91949147	          0.00242097	         28.93935567	          3.28072615	         -3.36975297	        -16.38086454	         -1.10661297	          6.50382413	         -9.88311290	         -9.77183046	          5.74874343	         -3.01767518	         -3.69282722	          9.49433455	         -1.13175443	          3.93118798	          3.21123042	         14.81371675	         -1.75016213	         -0.30516720	          2.12932626	         -6.07080577	        -13.45630971	          6.05357082	          4.49887060	        -13.45707412	         15.92836300	         17.20142420	         36.11218056	         86.51662706	         86.51662706	          0.05965477	          0.05965477	          0.05000058	          0.05965499	          0.05965494	          0.05784120	          0.18491393	          0.09326588	          0.17886785	          0.05965776	          0.05000093	          0.17190647	          0.30573817	          0.17106087	          0.24352693	          0.11950894	          0.05000070	          0.05032795	          0.15210728	          0.05000184	          0.05000250	          0.16415264	          0.05965475	          0.05008648	          0.30948291	          0.30607245	          0.14381882	          0.05000119	          0.10477377	          0.10357039	          0.09335150	          0.07283791	          0.07546808	          0.06295754	          0.05000035	          0.05000963	          0.05000308	          0.50676763	          0.23758780	          0.16194584	          0.21175312	          0.47047794	          0.24719432	          0.05444573	          0.11742848	          0.09902926	          0.23079604	          0.10131413	          0.06644510	          0.26819923	          0.18461514	          0.10287123	          0.05001021	          0.05000129	          0.05000073	          0.05171022	          0.10951068	          0.11205428	          0.09306619	          0.05000633	          0.05000998	          0.05000208	          0.31246317	          0.11613339	          0.05034324	          0.05000449	          0.05000254	          0.05000223	          0.40039356	          0.63198883	          0.05000054	          0.05000179	          0.05001516	          0.31276620	          0.05000072	          0.05000075	          0.05000067	          0.25823896	          0.35676519	          0.32870285	          0.26510903	          0.24932191	          0.33351541	          0.05000012	          0.05965506	          0.13466068	          0.05000079	          0.05000020	          0.05000076	          0.05000010	          0.05000048	          0.06984445	
          1.74945178	         -2.92803864	          2.22770122	         -6.09470824	          2.19002296	          0.91864192	          0.00223197	         28.28607534	          3.67983853	         -3.13218530	        -16.16342736	         -1.41186987	          6.32575119	        -10.38154609	        -11.82677851	          5.16996032	         -3.74183553	         -4.07401619	         10.51435994	         -1.25855405	          2.94124669	          3.09776677	         16.75228843	         -1.52805186	         -0.50036321	          2.20138329	         -7.05608290	        -13.44971366	          5.82576683	          4.17098783	        -13.47083403	         16.26963156	         16.93633831	         37.30555833	         86.51662706	         86.51662706	          0.05000004	          0.05000013	          0.11862917	          0.05000021	          0.05000021	          0.05000020	          0.15498693	          0.07817159	          0.14991917	          0.05000321	          0.05962217	          0.14408471	          0.34835895	          0.35661495	          0.24504713	          0.12941723	          0.05000098	          0.08122036	          0.17225628	          0.06496441	          0.11303793	          0.15367151	          0.05000040	          0.05000152	          0.57116368	          0.25653640	          0.12054275	          0.05965485	          0.08781897	          0.08681132	          0.07824506	          0.07111078	          0.07117360	          0.06344168	          0.05965389	          0.05000580	          0.05872283	          0.49333222	          0.26754132	          0.20804112	          0.17748262	          0.43619907	          0.20718750	          0.05000002	          0.09842333	          0.08300193	          0.19344311	          0.08491716	          0.05965442	          0.22479298	          0.15473640	          0.08622227	          0.05001144	          0.05000260	          0.05000859	          0.05000026	          0.09178738	          0.20403646	          0.07801058	          0.12257652	          0.05966150	          0.05965939	          0.26189318	          0.09734079	          0.05000608	          0.05942023	          0.05965042	          0.05965679	          0.33559216	          0.57827123	          0.05965617	          0.05965787	          0.05000190	          0.27161110	          0.10056690	          0.09233577	          0.12417125	          0.21644439	          0.29902472	          0.27550409	          0.22220285	          0.20897142	          0.27953858	          0.05000007	          0.05000050	          0.15310043	          0.05000020	          0.05000011	          0.05000031	          0.06607961	          0.07117405	          0.07117369	
          1.76103756	         -2.92108801	          2.31335750	         -6.32465836	          2.20801693	          0.91776372	          0.00206864	         27.50011940	          3.95395062	         -2.86740718	        -15.88107023	         -1.71633650	          6.13633773	        -10.95048954	        -13.97190647	          4.68544499	         -4.63054930	         -4.46645840	         11.46896596	         -1.48735625	          1.82139955	          3.11428936	         18.73678421	         -1.28468111	         -0.71046277	          2.26139873	         -8.05932940	        -13.45443231	          5.67074379	          3.76325088	        -13.48112563	         16.53054866	         16.70302366	         38.47758303	         86.51662706	         86.51662706	          0.25175964	          0.26960066	          0.30218592	          0.46399216	          0.29023245	          0.20381718	          0.13238617	          0.07526154	          0.12640013	          0.06706553	          0.05000215	          0.12076549	          0.29197906	          0.29889907	          0.20538852	          0.14079762	          0.05000123	          0.06807662	          0.14437836	          0.14630387	          0.13805166	          0.12880220	          0.05002701	          0.05000142	          0.47872402	          0.21501769	          0.23106206	          0.05000033	          0.07360630	          0.07276176	          0.06558183	          0.05960202	          0.05965472	          0.05336086	          0.05000036	          0.05000139	          0.05000155	          0.55964120	          0.34498193	          0.17437158	          0.36523207	          0.50617846	          0.17693373	          0.06515603	          0.11820014	          0.06956855	          0.29925880	          0.07117400	          0.05000063	          0.27088948	          0.12969366	          0.07226795	          0.05001164	          0.05000073	          0.05000048	          0.05000317	          0.07693351	          0.17101455	          0.06538687	          0.10273851	          0.05000704	          0.05000428	          0.30017314	          0.08466114	          0.05002299	          0.05000421	          0.05000272	          0.05000270	          0.28127863	          0.53953574	          0.05000144	          0.05000391	          0.05000943	          0.25062701	          0.08429085	          0.07739189	          0.10407494	          0.18141404	          0.25062922	          0.23091524	          0.18624061	          0.17515088	          0.23429705	          0.07395193	          0.13868177	          0.15856101	          0.05001203	          0.09109380	          0.05000492	          0.06276943	          0.05965493	          0.05965465	
          1.77262333	         -2.91158976	          2.38944469	         -6.51514076	          2.22607452	          0.91688178	          0.00187409	         26.67545691	          4.19112530	         -2.60846373	        -15.49971910	         -2.00250691	          5.96212384	        -11.45563147	        -16.24664499	          4.15209538	         -5.62444404	         -4.86175243	         12.36568011	         -1.40804921	          0.59479277	          3.15620205	         20.56026182	         -1.04590543	         -0.91571216	          2.31141509	         -9.02730051	        -13.46024502	          5.59019548	          3.31845503	        -13.49991216	         16.73932489	         16.47049334	         39.60522643	         86.51662706	         86.51662706	          0.36423977	          0.36843228	          0.40317532	          0.38889782	          0.24326077	          0.25559479	          0.11158079	          0.09438249	          0.10889623	          0.05621209	          0.05000246	          0.10122033	          0.24472396	          0.25052463	          0.17219733	          0.17401599	          0.05000088	          0.05706018	          0.12101267	          0.24975896	          0.20292769	          0.17740862	          0.05000019	          0.05000023	          0.40124531	          0.18021849	          0.19366723	          0.05000024	          0.11761972	          0.12343041	          0.09767803	          0.05000010	          0.05000024	          0.05000003	          0.05000007	          0.05000031	          0.05000034	          0.62734333	          0.30383582	          0.16183356	          0.60864927	          0.55727330	          0.31725435	          0.08006576	          0.09907012	          0.05830932	          0.25082568	          0.05965510	          0.05000269	          0.22704812	          0.10870370	          0.06057196	          0.05000501	          0.05000061	          0.05000084	          0.05000028	          0.06448273	          0.20355713	          0.13080815	          0.11338091	          0.05963423	          0.14318185	          0.25159261	          0.07097154	          0.05000305	          0.05004557	          0.05002474	          0.05004270	          0.23575528	          0.47109558	          0.05121984	          0.05005573	          0.05000098	          0.21006453	          0.10691977	          0.11071428	          0.10131607	          0.15205316	          0.21006625	          0.19354285	          0.15609864	          0.14680392	          0.19637753	          0.17569456	          0.11623761	          0.13289904	          0.32912634	          0.19269336	          0.09959183	          0.07987452	          0.05000017	          0.05000016	
